<?xml version="1.0" ?><svg enable-background="new 0 0 100 100" id="twitter" version="1.1" viewBox="0 0 100 100" xml:space="preserve" xmlns="http://www.w3.org/2000/svg" xmlns:xlink="http://www.w3.org/1999/xlink"><path d="M50,5C25.147,5,5,25.147,5,50c0,10.904,3.879,20.9,10.331,28.688c5.232-0.311,10.004-2.081,14.422-5.392  c-5.919-0.527-9.858-3.493-12.052-9.04c1.996,0.297,3.836,0.306,5.787-0.224c-7.116-1.667-10.499-7.976-10.191-12.78  c1.741,0.844,3.524,1.485,5.574,1.498c-6.644-4.879-6.462-13.006-3.767-17.141c6.963,8.199,15.787,12.705,26.463,13.462  c-0.046-1.326-0.164-2.57-0.12-3.809c0.198-5.598,4.62-10.722,10.123-11.762c4.535-0.857,8.527,0.204,11.865,3.456  c0.331,0.322,0.632,0.257,1.004,0.171c2.506-0.584,4.879-1.503,7.123-2.76c0.082-0.046,0.171-0.077,0.379-0.168  c-0.999,2.967-2.774,5.178-5.254,6.855c0.012,0.057,0.025,0.113,0.037,0.17c0.752-0.14,1.51-0.255,2.255-0.428  c0.777-0.18,1.548-0.39,2.308-0.632c0.753-0.24,1.487-0.535,2.317-0.718c-0.539,0.703-1.01,1.473-1.629,2.096  c-1.412,1.42-2.903,2.76-4.343,4.153c-0.177,0.171-0.342,0.467-0.336,0.7c0.102,3.737-0.341,7.411-1.36,11.001  c-1.568,5.527-4.187,10.502-7.971,14.85c-3.189,3.666-6.963,6.562-11.344,8.654c-3.594,1.716-7.383,2.77-11.34,3.216  c-5.714,0.644-11.177,0.136-16.372-1.602C26.989,90.243,37.936,95,50,95c24.853,0,45-20.147,45-45C95,25.147,74.853,5,50,5z" fill="#55ACEE"/></svg>