<?xml version="1.0" ?><!DOCTYPE svg  PUBLIC '-//W3C//DTD SVG 1.1//EN'  'http://www.w3.org/Graphics/SVG/1.1/DTD/svg11.dtd'><svg enable-background="new 0 0 64 64" height="64px" id="Layer_1" version="1.1" viewBox="0 0 64 64" width="64px" xml:space="preserve" xmlns="http://www.w3.org/2000/svg" xmlns:xlink="http://www.w3.org/1999/xlink"><g><g><g><g><path d="M12.9,35.6h-2.2l-1.9-6.9c-0.2-0.7-0.3-1.4-0.4-2.1h0c-0.1,0.7-0.2,1.4-0.4,2.1l-1.9,7H3.9L1,24.4h1.9      l1.7,6.8c0.2,0.8,0.3,1.5,0.4,2.2h0c0.1-0.7,0.2-1.4,0.4-2.1l1.9-6.9h2l2,6.9c0.2,0.6,0.3,1.3,0.4,2.1h0c0.1-0.7,0.2-1.3,0.4-2      l1.7-7h1.8L12.9,35.6" fill="#366FC1"/></g></g><g><g><path d="M19.1,35.8c-2.3,0-3.8-1.3-3.8-4.2c0-2.5,1.6-4.4,4.1-4.4c2.2,0,3.8,1.2,3.8,4.1      C23.2,33.9,21.6,35.8,19.1,35.8 M19.3,28.7c-1.1,0-2.1,0.8-2.1,2.7c0,1.9,0.7,2.8,2.1,2.8c1.1,0,2.1-0.9,2.1-2.8      C21.4,29.7,20.7,28.7,19.3,28.7z" fill="#203D74"/></g></g><g><g><path d="M28.4,28.9c-1.6-0.3-2.4,0.8-2.4,3.3v3.4h-1.8v-8.3h1.7c0,0.5,0,1.2-0.2,1.8h0c0.4-1.1,1.2-2.1,2.7-2      L28.4,28.9" fill="#203D74"/></g></g><g><g><rect fill="#203D74" height="11.3" width="1.8" x="29.5" y="24.3"/></g></g><g><polygon points="31.3,30.5 29.5,32.3 29.5,35.6 31.3,35.6    "/></g><g><g><path d="M38,35.6c0-0.4,0-1.1,0.1-1.5h0c-0.4,1-1.4,1.7-2.7,1.7c-2,0-3-1.5-3-3.9c0-2.8,1.6-4.7,4.3-4.7c0.4,0,0.8,0,1.2,0.1v-3      h1.8v11.3H38 M37.9,28.8c-0.4-0.1-0.9-0.1-1.3-0.1c-1.4,0-2.4,0.9-2.4,3.1c0,1.7,0.5,2.6,1.6,2.6c1.3,0,2-1.6,2-3V28.8z"/></g></g><g><g><path d="M43.6,31.5c-0.2,0-0.5,0-0.8,0v4.1H41V24.4c0.9,0,1.8-0.1,2.9-0.1c2.7,0,4.1,1.3,4.1,3.4      C48,29.9,46.3,31.5,43.6,31.5 M43.7,25.8c-0.3,0-0.6,0-0.9,0v4.1c0.2,0,0.5,0.1,0.8,0.1c1.5,0,2.5-0.8,2.5-2.2      C46.1,26.6,45.4,25.8,43.7,25.8z" fill="#3466B7"/></g></g><g><g><path d="M53.1,35.6c0-0.5,0-1.1,0.1-1.5l0,0c-0.4,1-1.4,1.7-2.7,1.7c-1.4,0-2.3-0.9-2.3-2.3      c0-1.9,1.8-2.9,4.9-2.9v-0.5c0-1-0.4-1.6-1.7-1.6c-0.8,0-1.7,0.2-2.4,0.6l-0.3-1.4c0.8-0.3,1.9-0.6,3-0.6c2.5,0,3.2,1.1,3.2,2.7      v3.4c0,0.7,0,1.6,0,2.3H53.1 M53,31.8c-2.5,0-3.2,0.7-3.2,1.5c0,0.6,0.4,1.1,1.1,1.1c1.2,0,2-1.2,2-2.3V31.8z" fill="#3466B7"/></g></g><g><g><path d="M59.6,36.2c-1,2.8-2.1,3.6-4,3.6c-0.3,0-0.8,0-1-0.1l0.2-1.5c0.3,0.1,0.7,0.1,1,0.1      c0.8,0,1.5-0.4,2.1-1.9l0.3-0.8L55,27.3h2l1.3,3.8c0.3,0.7,0.5,1.5,0.6,2.2h0c0.2-0.7,0.5-1.7,0.8-2.6l1.2-3.4h1.9L59.6,36.2" fill="#3466B7"/></g></g><g><g><polyline fill="#3466B7" points="60.2,24.4 59.6,24.4 59.6,24.2 61,24.2 61,24.4 60.4,24.4 60.4,26 60.2,26 60.2,24.4     "/></g></g><g><g><path d="M61.3,24.2h0.4l0.4,1.3c0.1,0.2,0.1,0.2,0.1,0.3h0c0-0.1,0-0.1,0.1-0.3l0.4-1.3H63V26h-0.2v-1.5h0      L62.2,26H62l-0.5-1.5h0V26h-0.2V24.2" fill="#3466B7"/></g></g></g><g><g><polygon fill="#203D74" points="5,35.6 6,35.6 6.4,34.2    "/></g><g><path d="M13.3,27.3l-1,4.1c-0.2,0.6-0.3,1.3-0.4,2h0c-0.1-0.7-0.3-1.5-0.4-2.1L11,29.7l-1.5,1.5l1.2,4.4h2.2     l2.8-10.7L13.3,27.3z" fill="#203D74"/></g></g></g></svg>